<svg
    xmlns="http://www.w3.org/2000/svg"
    width="24"
    height="24"
    fill="none"
>
    <path d="M12 23.613c-1.732 0-3.33-.288-4.794-.866a11.61 11.61 0 0 1-3.835-2.443 11.322 11.322 0 0 1-2.505-3.68C.289 15.222 0 13.686 0 12.016c0-1.691.289-3.238.866-4.64a10.902 10.902 0 0 1 2.505-3.68 11.61 11.61 0 0 1 3.835-2.443C8.67.675 10.268.387 12 .387c1.732 0 3.33.288 4.794.866 1.464.577 2.732 1.391 3.804 2.443a10.34 10.34 0 0 1 2.505 3.68c.598 1.402.897 2.949.897 4.64 0 1.67-.299 3.206-.897 4.608a10.715 10.715 0 0 1-2.505 3.68c-1.072 1.052-2.34 1.866-3.804 2.443-1.464.578-3.062.866-4.794.866Zm0-1.762c1.423 0 2.732-.238 3.928-.712a9.51 9.51 0 0 0 3.123-2.072 9.119 9.119 0 0 0 2.042-3.124c.495-1.196.742-2.505.742-3.928 0-1.381-.247-2.67-.742-3.866a9.12 9.12 0 0 0-2.041-3.123 9.278 9.278 0 0 0-3.124-2.103c-1.196-.516-2.505-.774-3.928-.774s-2.732.258-3.928.774a9.278 9.278 0 0 0-3.124 2.103 9.509 9.509 0 0 0-2.072 3.123c-.474 1.196-.711 2.485-.711 3.867 0 1.422.237 2.731.711 3.927a9.509 9.509 0 0 0 2.072 3.124 9.51 9.51 0 0 0 3.124 2.072c1.196.474 2.505.712 3.928.712Z"/><path fill="#181E2F" d="M17.947 9.201h-2.474c-.248-.783-.67-1.392-1.268-1.825-.598-.433-1.31-.65-2.134-.65-1.237 0-2.196.465-2.877 1.393-.68.927-1.02 2.216-1.02 3.866 0 1.628.34 2.907 1.02 3.835.68.927 1.64 1.391 2.877 1.391.783 0 1.474-.206 2.072-.618.598-.433 1.03-1.031 1.299-1.794h2.474c-.371 1.464-1.082 2.557-2.134 3.278-1.03.701-2.237 1.052-3.618 1.052-2 0-3.578-.629-4.732-1.887-1.155-1.278-1.732-3.03-1.732-5.257s.567-3.99 1.7-5.29c1.155-1.298 2.733-1.948 4.733-1.948 1.402 0 2.639.382 3.71 1.145 1.073.742 1.774 1.845 2.104 3.309Z"/>
    <style>
        path { fill: #181E2F; }
        @media (prefers-color-scheme: dark) {
            path { fill: #FAFAFA; }
        }
    </style>
</svg>
